# File created by Blade
# Date/Time:  Tue Sep 28 14:35:47 2010
#---------------------------------------------------------
:version 1.10
:name HOM
:units
  mass 1.0
  length 1.000000
  angle deg
:documentation
     Acclaim Skeleton File
:root
   axis xyz
   order TX TY TZ RX RY RZ
   position 0.000000 0.000000 0.000000
   orientation 0 0 0
:bonedata
   begin
      id 1
      name LeftUpLeg_dum
      direction 1.000000 0.000000 0.000000
      length 3.677894
      axis 0.0 0.0 0.0 xyz
   end
   begin
      id 2
      name RightUpLeg_dum
      direction -1.000000 0.000000 0.000000
      length 3.677894
      axis 0.0 0.0 0.0 xyz
   end
   begin
      id 3
      name Spine_dum
      direction 0.000000 1.000000 0.000000
      length 0.039370
      axis 0.0 0.0 0.0 xyz
   end
   begin
      id 4
      name LeftUpLeg
      direction 0.000000 -1.000000 0.000000
      length 18.389491
      axis 0.0 0.0 0.0 xyz
      dof rx ry rz
   end
   begin
      id 5
      name LeftLeg
      direction 0.000000 -1.000000 0.000000
      length 16.918313
      axis 0.0 0.0 0.0 xyz
      dof rx ry rz
   end
   begin
      id 6
      name LeftFoot
      direction 0.000000 -0.258819 0.965926
      length 6.436326
      axis 15.0 0.0 0.0 xyz
      dof rx ry rz
   end
   begin
      id 7
      name LeftToeBase
      direction 0.000000 0.000000 1.000000
      length 2.952750
      axis 0.0 0.0 0.0 xyz
      dof rx ry rz
   end
   begin
      id 8
      name RightUpLeg
      direction 0.000000 -1.000000 0.000000
      length 18.389491
      axis 0.0 0.0 0.0 xyz
      dof rx ry rz
   end
   begin
      id 9
      name RightLeg
      direction 0.000000 -1.000000 0.000000
      length 16.918313
      axis 0.0 0.0 0.0 xyz
      dof rx ry rz
   end
   begin
      id 10
      name RightFoot
      direction 0.000000 -0.258819 0.965926
      length 6.436326
      axis 15.0 0.0 0.0 xyz
      dof rx ry rz
   end
   begin
      id 11
      name RightToeBase
      direction 0.000000 0.000000 1.000000
      length 2.952750
      axis 0.0 0.0 0.0 xyz
      dof rx ry rz
   end
   begin
      id 12
      name Spine
      direction 0.000000 1.000000 0.000000
      length 9.194745
      axis 0.0 0.0 0.0 xyz
      dof rx ry rz
   end
   begin
      id 13
      name Spine1
      direction 0.000000 1.000000 0.000000
      length 0.000000
      axis 0.0 0.0 0.0 xyz
      dof rx ry rz
   end
   begin
      id 14
      name Spine1_dum1
      direction 0.000000 1.000000 0.000000
      length 9.194745
      axis 0.0 0.0 0.0 xyz
   end
   begin
      id 15
      name Spine1_dum2
      direction 0.000000 1.000000 0.000000
      length 9.194745
      axis 0.0 0.0 0.0 xyz
   end
   begin
      id 16
      name Spine1_dum3
      direction 0.000000 1.000000 0.000000
      length 9.194745
      axis 0.0 0.0 0.0 xyz
   end
   begin
      id 17
      name Neck
      direction 0.000000 1.000000 0.000000
      length 4.229598
      axis 0.0 0.0 0.0 xyz
      dof rx ry rz
   end
   begin
      id 18
      name Head
      direction 0.000000 1.000000 0.000000
      length 4.527550
      axis 0.0 0.0 0.0 xyz
      dof rx ry rz
   end
   begin
      id 19
      name LeftShoulder
      direction 1.000000 -0.000004 0.000000
      length 5.516839
      axis 0.0 0.0 -90.0 xyz
      dof rx ry rz
   end
   begin
      id 20
      name LeftArm
      direction 1.000000 -0.000004 0.000000
      length 11.033679
      axis 0.0 0.0 -90.0 xyz
      dof rx ry rz
   end
   begin
      id 21
      name LeftForeArm
      direction 1.000000 -0.000004 0.000000
      length 10.114232
      axis 0.0 0.0 -90.0 xyz
      dof rx ry rz
   end
   begin
      id 22
      name LeftHand
      direction 0.000000 0.000000 0.000000
      length 0.000000
      axis 0.0 0.0 -90.0 xyz
      dof rx ry rz
   end
   begin
      id 23
      name LeftHand_dum1
      direction 0.000000 0.000000 0.000000
      length 0.000000
      axis 0.0 0.0 -90.0 xyz
   end
   begin
      id 24
      name LeftHand_dum2
      direction 1.000000 -0.000004 0.000000
      length 3.937000
      axis 0.0 0.0 -90.0 xyz
   end
   begin
      id 25
      name LeftHandThumb
      direction 0.000000 0.000000 1.000000
      length 3.937000
      axis 0.0 0.0 -90.0 xyz
      dof rx ry rz
   end
   begin
      id 26
      name RightShoulder
      direction -1.000000 -0.000004 0.000000
      length 5.516839
      axis 0.0 0.0 90.0 xyz
      dof rx ry rz
   end
   begin
      id 27
      name RightArm
      direction -1.000000 -0.000004 0.000000
      length 11.033679
      axis 0.0 0.0 90.0 xyz
      dof rx ry rz
   end
   begin
      id 28
      name RightForeArm
      direction -1.000000 -0.000004 0.000000
      length 10.114232
      axis 0.0 0.0 90.0 xyz
      dof rx ry rz
   end
   begin
      id 29
      name RightHand
      direction 0.000000 0.000000 0.000000
      length 0.000000
      axis 0.0 0.0 90.0 xyz
      dof rx ry rz
   end
   begin
      id 30
      name RightHand_dum1
      direction 0.000000 0.000000 0.000000
      length 0.000000
      axis 0.0 0.0 90.0 xyz
   end
   begin
      id 31
      name RightHand_dum2
      direction -1.000000 -0.000004 0.000000
      length 5.393690
      axis 0.0 0.0 90.0 xyz
   end
   begin
      id 32
      name RightHandThumb
      direction 0.000000 0.000000 1.000000
      length 3.937000
      axis 0.0 0.0 90.0 xyz
      dof rx ry rz
   end
:hierarchy
   begin
      root LeftUpLeg_dum RightUpLeg_dum Spine_dum
      LeftUpLeg_dum LeftUpLeg
      RightUpLeg_dum RightUpLeg
      Spine_dum Spine
      LeftUpLeg LeftLeg
      LeftLeg LeftFoot
      LeftFoot LeftToeBase
      RightUpLeg RightLeg
      RightLeg RightFoot
      RightFoot RightToeBase
      Spine Spine1
      Spine1 Spine1_dum1 Spine1_dum2 Spine1_dum3
      Spine1_dum1 Neck
      Spine1_dum2 LeftShoulder
      Spine1_dum3 RightShoulder
      Neck Head
      LeftShoulder LeftArm
      LeftArm LeftForeArm
      LeftForeArm LeftHand
      LeftHand LeftHand_dum1 LeftHand_dum2
      LeftHand_dum1 LeftHandThumb
      RightShoulder RightArm
      RightArm RightForeArm
      RightForeArm RightHand
      RightHand RightHand_dum1 RightHand_dum2
      RightHand_dum1 RightHandThumb
   end

# File created by Blade
# Date/Time:  Tue Sep 28 14:35:42 2010
# Frame Rate: 200.000 fps
#------------------------------------------------------
:FULLY-SPECIFIED
:DEGREES
762
root  0.362726 36.634759 34.200758 6.924540 -0.703244 -1.498062
LeftUpLeg  -29.107403 -7.577921 7.433737
LeftLeg  4.796875 -0.000000 0.000000
LeftFoot  -0.327002 27.874511 -0.282767
LeftToeBase  -10.674658 0.000000 -0.000000
RightUpLeg  -0.403642 -26.055771 1.648972
RightLeg  20.688684 -0.000000 0.000000
RightFoot  -11.316089 4.219718 -17.738573
RightToeBase  -13.938474 0.000000 -0.000000
Spine  -15.517500 -0.668243 0.085687
Spine1  18.846667 0.235845 3.042624
Neck  10.159065 2.919766 -6.595828
Head  -8.888904 2.334318 2.536365
LeftShoulder  -6.710423 -11.174506 -30.635221
LeftArm  -1.548255 45.843653 -37.359093
LeftForeArm  25.254810 -0.000000 0.000000
LeftHand  4.065088 -7.143487 -2.377876
LeftHandThumb  0.000000 -0.000000 0.000000
RightShoulder  3.922246 8.149706 22.965078
RightArm  0.256056 -46.054272 37.730673
RightForeArm  33.338694 -0.000000 0.000000
RightHand  6.652574 15.362982 2.837115
RightHandThumb  0.000000 -0.000000 0.000000
763
root  0.381842 36.598294 34.404190 6.969466 -0.812547 -1.441902
LeftUpLeg  -29.122995 -8.473554 7.869685
LeftLeg  4.059118 -0.000000 0.000000
LeftFoot  -0.602702 28.857490 -0.999035
LeftToeBase  -10.416439 0.000000 -0.000000
RightUpLeg  -0.244600 -25.847055 1.454968
RightLeg  20.927576 -0.000000 0.000000
RightFoot  -11.425390 3.985406 -17.735950
RightToeBase  -14.062315 0.000000 -0.000000
Spine  -15.519955 -0.674897 -0.018308
Spine1  18.878450 0.267008 2.981074
Neck  10.068075 2.912260 -6.512801
Head  -8.837194 2.377012 2.533274
LeftShoulder  -6.722077 -11.126271 -30.701552
LeftArm  -1.647566 45.872283 -37.407675
LeftForeArm  24.985715 -0.000000 0.000000
LeftHand  3.878005 -6.689782 -2.543751
LeftHandThumb  0.000000 -0.000000 0.000000
RightShoulder  3.978791 8.238367 22.985379
RightArm  0.383223 -45.871648 37.624387
RightForeArm  33.548893 -0.000000 0.000000
RightHand  6.752807 15.383655 2.773239
RightHandThumb  0.000000 -0.000000 0.000000
764
root  0.404933 36.566993 34.612322 7.034122 -0.977795 -1.294988
LeftUpLeg  -29.076351 -10.345654 8.758457
LeftLeg  3.010149 -0.000000 0.000000
LeftFoot  -0.497842 30.971804 -1.817743
LeftToeBase  -10.647781 0.000000 -0.000000
RightUpLeg  -0.023465 -25.773873 1.128383
RightLeg  21.002517 -0.000000 0.000000
RightFoot  -11.502733 3.995418 -17.774699
RightToeBase  -14.500932 0.000000 -0.000000
Spine  -15.611989 -0.657487 -0.179307
Spine1  19.015722 0.339382 2.907566
Neck  9.985143 2.712638 -6.437107
Head  -8.923441 2.267624 2.508340
LeftShoulder  -6.709732 -11.239750 -30.767138
LeftArm  -1.860403 46.029158 -37.510035
LeftForeArm  24.731155 -0.000000 0.000000
LeftHand  3.717371 -6.652949 -2.714672
LeftHandThumb  0.000000 -0.000000 0.000000
RightShoulder  4.097722 8.345232 23.047485
RightArm  0.533957 -45.748594 37.465171
RightForeArm  33.704110 -0.000000 0.000000
RightHand  7.037499 15.554713 2.775745
RightHandThumb  0.000000 -0.000000 0.000000
765
root  0.420741 36.529673 34.823006 7.053550 -1.104005 -1.248113
LeftUpLeg  -29.160696 -11.149614 9.182844
LeftLeg  2.578709 -0.000000 0.000000
LeftFoot  -0.650874 32.052484 -2.258397
LeftToeBase  -10.633869 0.000000 -0.000000
RightUpLeg  0.121273 -25.387736 0.958708
RightLeg  21.330396 -0.000000 0.000000
RightFoot  -11.580011 3.637217 -17.699678
RightToeBase  -14.638177 0.000000 -0.000000
Spine  -15.617264 -0.668651 -0.284924
Spine1  19.069145 0.366439 2.843930
Neck  9.877133 2.972080 -6.384539
Head  -8.898278 2.478339 2.550622
LeftShoulder  -6.753099 -11.069642 -30.829624
LeftArm  -1.882981 45.885923 -37.501846
LeftForeArm  24.485125 -0.000000 0.000000
LeftHand  3.647266 -6.478220 -2.816410
LeftHandThumb  0.000000 -0.000000 0.000000
RightShoulder  4.140038 8.391275 23.063139
RightArm  0.686255 -45.523570 37.354722
RightForeArm  34.046860 -0.000000 0.000000
RightHand  6.854870 15.354382 2.746569
RightHandThumb  0.000000 -0.000000 0.000000
766
root  0.439011 36.495618 35.033209 7.081970 -1.232329 -1.206038
LeftUpLeg  -29.234201 -11.898710 9.583683
LeftLeg  2.156599 -0.000000 0.000000
LeftFoot  -0.831208 33.058997 -2.836056
LeftToeBase  -10.548534 0.000000 -0.000000
RightUpLeg  0.281443 -25.128545 0.772063
RightLeg  21.612632 -0.000000 0.000000
RightFoot  -11.621504 3.416574 -17.761669
RightToeBase  -14.762727 0.000000 -0.000000
Spine  -15.624053 -0.667664 -0.389439
Spine1  19.116041 0.405316 2.793730
Neck  9.783684 2.969774 -6.281960
Head  -8.918713 2.548259 2.558921
LeftShoulder  -6.783492 -10.975165 -30.889755
LeftArm  -1.943256 45.830451 -37.514116
LeftForeArm  24.255990 -0.000000 0.000000
LeftHand  3.490419 -6.321326 -2.924466
LeftHandThumb  0.000000 -0.000000 0.000000
RightShoulder  4.203458 8.464522 23.111479
RightArm  0.818060 -45.339443 37.258595
RightForeArm  34.250725 -0.000000 0.000000
RightHand  7.065854 15.239317 2.754340
RightHandThumb  0.000000 -0.000000 0.000000
767
root  0.459959 36.468486 35.252339 7.129508 -1.447156 -1.063600
LeftUpLeg  -29.259202 -13.550279 10.397649
LeftLeg  1.437187 -0.000000 0.000000
LeftFoot  -0.884794 35.034055 -3.813898
LeftToeBase  -10.699714 0.000000 -0.000000
RightUpLeg  0.540823 -25.074963 0.412204
RightLeg  21.665780 -0.000000 0.000000
RightFoot  -11.647764 3.524062 -17.774754
RightToeBase  -15.158445 0.000000 -0.000000
Spine  -15.743082 -0.636595 -0.568819
Spine1  19.290552 0.497332 2.721799
Neck  9.686745 2.826672 -6.192746
Head  -8.981625 2.479867 2.550445
LeftShoulder  -6.756860 -11.177942 -30.950858
LeftArm  -2.262800 46.241348 -37.666889
LeftForeArm  24.064966 -0.000000 0.000000
LeftHand  3.342391 -6.869548 -3.077644
LeftHandThumb  0.000000 -0.000000 0.000000
RightShoulder  4.299213 8.487464 23.189127
RightArm  0.960737 -45.028061 37.119301
RightForeArm  34.443794 -0.000000 0.000000
RightHand  7.269380 15.348246 2.694472
RightHandThumb  0.000000 -0.000000 0.000000
768
root  0.476953 36.434124 35.447930 7.137462 -1.546612 -1.058707
LeftUpLeg  -29.396152 -13.886169 10.616657
LeftLeg  1.311721 -0.000000 0.000000
LeftFoot  -0.620395 35.695817 -3.884937
LeftToeBase  -10.934080 0.000000 -0.000000
RightUpLeg  0.643706 -24.720351 0.299487
RightLeg  22.028703 -0.000000 0.000000
RightFoot  -11.628394 3.169871 -17.799338
RightToeBase  -15.539538 0.000000 -0.000000
Spine  -15.692614 -0.635943 -0.656929
Spine1  19.389386 0.528149 2.674496
Neck  9.523756 2.996359 -6.093796
Head  -9.032812 2.635571 2.583599
LeftShoulder  -6.764633 -11.103677 -30.992760
LeftArm  -2.268103 46.135363 -37.654590
LeftForeArm  23.845980 -0.000000 0.000000
LeftHand  3.324740 -6.540573 -2.989371
LeftHandThumb  0.000000 -0.000000 0.000000
RightShoulder  4.368291 8.621641 23.234406
RightArm  1.095523 -44.779774 37.057101
RightForeArm  34.686217 -0.000000 0.000000
RightHand  7.281898 15.238535 2.685344
RightHandThumb  0.000000 -0.000000 0.000000
769
root  0.497347 36.399629 35.676948 7.151456 -1.695457 -1.034341
LeftUpLeg  -29.515528 -14.428329 10.886630
LeftLeg  1.288833 -0.000000 0.000000
LeftFoot  -0.831508 36.388037 -4.351614
LeftToeBase  -10.914949 0.000000 -0.000000
RightUpLeg  0.813070 -24.339822 0.121016
RightLeg  22.350519 -0.000000 0.000000
RightFoot  -11.610152 2.901182 -17.726080
RightToeBase  -15.723425 0.000000 -0.000000
Spine  -15.719417 -0.628230 -0.743871
Spine1  19.386684 0.568275 2.629786
Neck  9.457543 3.005658 -6.014430
Head  -8.904170 2.690057 2.572645
LeftShoulder  -6.800219 -10.973731 -31.063105
LeftArm  -2.454898 46.392399 -37.761134
LeftForeArm  23.508225 -0.000000 0.000000
LeftHand  3.724051 -7.081620 -2.590441
LeftHandThumb  0.000000 -0.000000 0.000000
RightShoulder  4.422167 8.673706 23.263294
RightArm  1.173469 -44.684336 36.991009
RightForeArm  34.917318 -0.000000 0.000000
RightHand  7.297482 15.213485 2.597378
RightHandThumb  0.000000 -0.000000 0.000000
